<?xml version="1.0" encoding="utf-8"?>
<!-- Generator: Adobe Illustrator 25.0.1, SVG Export Plug-In . SVG Version: 6.00 Build 0)  -->
<svg version="1.1" id="Layer_1" xmlns="http://www.w3.org/2000/svg" xmlns:xlink="http://www.w3.org/1999/xlink" x="0px" y="0px"
	 viewBox="0 0 430 430" style="enable-background:new 0 0 430 430;" xml:space="preserve">
<style type="text/css">
	.st0{fill:#08a88a;}
	.st1{fill:#121331;}
</style>
<path class="st0" d="M215,136.2c-3.3,0-6-2.7-6-6V34.3c0-3.3,2.7-6,6-6s6,2.7,6,6v95.9C221,133.5,218.3,136.2,215,136.2z"/>
<g>
	<path class="st1" d="M219.7,401.7h-9.4c-57.9,0-105-47.1-105-105V133.3c0-57.9,47.1-105,105-105h9.4c57.9,0,105,47.1,105,105v163.4
		C324.7,354.6,277.6,401.7,219.7,401.7z M210.3,40.3c-51.3,0-93,41.7-93,93v163.4c0,51.3,41.7,93,93,93h9.4c51.3,0,93-41.7,93-93
		V133.3c0-51.3-41.7-93-93-93H210.3z"/>
</g>
</svg>
